<?xml version="1.0" encoding="UTF-8" standalone="no"?>
<!-- Created with Inkscape (http://www.inkscape.org/) -->

<svg
   xmlns:dc="http://purl.org/dc/elements/1.1/"
   xmlns:cc="http://creativecommons.org/ns#"
   xmlns:rdf="http://www.w3.org/1999/02/22-rdf-syntax-ns#"
   xmlns:svg="http://www.w3.org/2000/svg"
   xmlns="http://www.w3.org/2000/svg"
   xmlns:xlink="http://www.w3.org/1999/xlink"
   xmlns:sodipodi="http://sodipodi.sourceforge.net/DTD/sodipodi-0.dtd"
   xmlns:inkscape="http://www.inkscape.org/namespaces/inkscape"
   width="64"
   height="64"
   id="svg2"
   sodipodi:version="0.32"
   inkscape:version="0.48.0 r9654"
   version="1.0"
   sodipodi:docname="C:\Users\Andrew\Desktop\Simple_cog.svg"
   inkscape:output_extension="org.inkscape.output.svg.inkscape">
  <defs
     id="defs4">
    <linearGradient
       id="linearGradient3918">
      <stop
         style="stop-color:#b5b5b5;stop-opacity:1;"
         offset="0"
         id="stop3920" />
      <stop
         style="stop-color:#f6f6f6;stop-opacity:1;"
         offset="1"
         id="stop3922" />
    </linearGradient>
    <inkscape:perspective
       sodipodi:type="inkscape:persp3d"
       inkscape:vp_x="0 : 526.18109 : 1"
       inkscape:vp_y="0 : 1000 : 0"
       inkscape:vp_z="744.09448 : 526.18109 : 1"
       inkscape:persp3d-origin="372.04724 : 350.78739 : 1"
       id="perspective10" />
    <filter
       inkscape:collect="always"
       id="filter3191">
      <feGaussianBlur
         inkscape:collect="always"
         stdDeviation="4.0963508"
         id="feGaussianBlur3193" />
    </filter>
    <filter
       inkscape:collect="always"
       id="filter3251">
      <feGaussianBlur
         inkscape:collect="always"
         stdDeviation="1.9204851"
         id="feGaussianBlur3253" />
    </filter>
    <radialGradient
       inkscape:collect="always"
       xlink:href="#linearGradient3918"
       id="radialGradient3924"
       cx="33.208763"
       cy="32.179295"
       fx="33.208763"
       fy="32.179295"
       r="30.179101"
       gradientTransform="matrix(1.317957,0.05439188,-0.04154621,1.0064597,-9.2220293,-2.0132544)"
       gradientUnits="userSpaceOnUse" />
  </defs>
  <sodipodi:namedview
     id="base"
     pagecolor="#ffffff"
     bordercolor="#666666"
     borderopacity="1.0"
     gridtolerance="10000"
     guidetolerance="10"
     objecttolerance="10"
     inkscape:pageopacity="0.0"
     inkscape:pageshadow="2"
     inkscape:zoom="5.6"
     inkscape:cx="31.587647"
     inkscape:cy="25.845388"
     inkscape:document-units="px"
     inkscape:current-layer="layer1"
     showgrid="false"
     inkscape:window-width="1280"
     inkscape:window-height="714"
     inkscape:window-x="-4"
     inkscape:window-y="220"
     inkscape:window-maximized="0" />
  <metadata
     id="metadata7">
    <rdf:RDF>
      <cc:Work
         rdf:about="">
        <dc:format>image/svg+xml</dc:format>
        <dc:type
           rdf:resource="http://purl.org/dc/dcmitype/StillImage" />
        <dc:title></dc:title>
      </cc:Work>
    </rdf:RDF>
  </metadata>
  <g
     inkscape:label="Layer 1"
     inkscape:groupmode="layer"
     id="layer1">
    <g
       id="g3267"
       transform="matrix(0.08159226,-0.26687626,0.26687626,0.08159226,16.986571,42.139453)">
      <path
         style="fill:url(#radialGradient3924);fill-opacity:1;fill-rule:nonzero;stroke:none;stroke-width:12.60000038;marker:none;visibility:visible;display:inline;overflow:visible;enable-background:accumulate"
         d="M 38.625,1.65625 C 32.666499,1.665733 35.749671,10.583826 27.78125,12.875 18.98851,15.403192 17.31939,3.945401 10.96875,10.53125 4.6181099,17.117099 16.144391,18.339917 13.9375,27.21875 11.730609,36.097582 0.97180737,31.83226 3.5,40.625 c 2.5281928,8.79274 9.351651,-0.56939 15.9375,5.78125 6.585849,6.35064 -2.503832,13.543109 6.375,15.75 8.878833,2.206891 4.20726,-8.409307 13,-10.9375 8.79274,-2.528192 10.46186,8.929599 16.8125,2.34375 6.35064,-6.585849 -5.175641,-7.808667 -2.96875,-16.6875 2.206891,-8.878832 12.965693,-4.61351 10.4375,-13.40625 -2.528193,-8.79274 -9.351651,0.56939 -15.9375,-5.78125 -6.585849,-6.35064 2.503832,-13.5431091 -6.375,-15.75 C 39.948859,1.730604 39.241397,1.655269 38.625,1.65625 z M 33.5625,24.8125 c 3.963247,0 7.1875,3.224253 7.1875,7.1875 0,3.963247 -3.224253,7.15625 -7.1875,7.15625 -3.963247,0 -7.15625,-3.193003 -7.15625,-7.15625 0,-3.963247 3.193003,-7.1875 7.15625,-7.1875 z"
         id="path2383"
         transform="matrix(3.5833265,0,0,3.5833265,-69.59001,-75.77266)"
         inkscape:connector-curvature="0" />
    </g>
  </g>
</svg>
